<svg width="33" height="33" viewBox="0 0 33 33" fill="none" xmlns="http://www.w3.org/2000/svg">
<path d="M31.02 16.8438C31.02 15.7713 30.9238 14.74 30.745 13.75H16.5V19.6075H24.64C24.2825 21.4913 23.21 23.0862 21.6013 24.1587V27.9675H26.51C29.37 25.3275 31.02 21.45 31.02 16.8438Z" fill="#4285F4"/>
<path d="M16.5001 31.625C20.5838 31.625 24.0076 30.2775 26.5101 27.9675L21.6013 24.1587C20.2538 25.0662 18.5351 25.6162 16.5001 25.6162C12.5676 25.6162 9.22631 22.9625 8.03006 19.3875H2.99756V23.2925C5.48631 28.2288 10.5876 31.625 16.5001 31.625Z" fill="#34A853"/>
<path d="M8.03 19.3738C7.7275 18.4663 7.54875 17.5038 7.54875 16.5C7.54875 15.4963 7.7275 14.5338 8.03 13.6263V9.72125H2.9975C1.96625 11.7563 1.375 14.0525 1.375 16.5C1.375 18.9475 1.96625 21.2438 2.9975 23.2788L6.91625 20.2263L8.03 19.3738Z" fill="#FBBC05"/>
<path d="M16.5001 7.3975C18.7276 7.3975 20.7076 8.1675 22.2888 9.6525L26.6201 5.32125C23.9938 2.87375 20.5838 1.375 16.5001 1.375C10.5876 1.375 5.48631 4.77125 2.99756 9.72125L8.03006 13.6262C9.22631 10.0512 12.5676 7.3975 16.5001 7.3975Z" fill="#EA4335"/>
</svg>
