<svg width="73" height="73" viewBox="0 0 73 73" fill="none" xmlns="http://www.w3.org/2000/svg">
<g clip-path="url(#clip0_19_2)">
<path d="M41.0625 4.5625C41.0625 2.03887 39.0236 0 36.5 0C33.9764 0 31.9375 2.03887 31.9375 4.5625V39.1662L21.4723 28.701C19.69 26.9188 16.7957 26.9188 15.0135 28.701C13.2313 30.4832 13.2313 33.3775 15.0135 35.1598L33.2635 53.4098C35.0457 55.192 37.94 55.192 39.7223 53.4098L57.9723 35.1598C59.7545 33.3775 59.7545 30.4832 57.9723 28.701C56.19 26.9188 53.2957 26.9188 51.5135 28.701L41.0625 39.1662V4.5625ZM9.125 50.1875C4.09199 50.1875 0 54.2795 0 59.3125V63.875C0 68.908 4.09199 73 9.125 73H63.875C68.908 73 73 68.908 73 63.875V59.3125C73 54.2795 68.908 50.1875 63.875 50.1875H49.4033L42.9445 56.6463C39.3801 60.2107 33.6057 60.2107 30.0412 56.6463L23.5967 50.1875H9.125ZM61.5938 65.0156C59.6975 65.0156 58.1719 63.49 58.1719 61.5938C58.1719 59.6975 59.6975 58.1719 61.5938 58.1719C63.49 58.1719 65.0156 59.6975 65.0156 61.5938C65.0156 63.49 63.49 65.0156 61.5938 65.0156Z" fill="#FB0991"/>
</g>
<defs>
<clipPath id="clip0_19_2">
<rect width="73" height="73" fill="white"/>
</clipPath>
</defs>
</svg>
