<svg width="15" height="15" viewBox="0 0 15 15" fill="none" xmlns="http://www.w3.org/2000/svg">
<g clip-path="url(#clip0_105_13)">
<mask id="mask0_105_13" style="mask-type:luminance" maskUnits="userSpaceOnUse" x="0" y="0" width="15" height="15">
<path d="M15 0H0V15H15V0Z" fill="white"/>
</mask>
<g mask="url(#mask0_105_13)">
<path d="M14.7246 2.06924L12.9301 0.274805C12.7558 0.09876 12.5156 0 12.2666 0H7.47355C6.4379 0 5.59855 0.83965 5.59855 1.875L5.59915 9.375C5.6249 10.4121 6.46575 11.25 7.4999 11.25H13.1249C14.1562 11.25 14.9999 10.4062 14.9999 9.375V2.73194C14.9999 2.48349 14.9003 2.24502 14.7246 2.06924ZM13.5937 9.375C13.5937 9.63385 13.3838 9.84375 13.1249 9.84375H7.47355C7.21465 9.84375 7.0048 9.63385 7.0048 9.375V1.87881C7.0048 1.61994 7.2147 1.41006 7.47355 1.41006H11.2236L11.2499 2.8125C11.2499 3.33017 11.6698 3.75 12.1874 3.75H13.5673V9.375H13.5937ZM7.96865 13.125C7.96865 13.3839 7.7588 13.5938 7.4999 13.5938H1.84856C1.58963 13.5938 1.37981 13.3839 1.37981 13.125L1.40559 5.62795C1.40559 5.36905 1.61547 5.1592 1.87434 5.1592H4.68743V3.75H1.87463C0.838988 3.75 -0.000366211 4.58935 -0.000366211 5.625L-7.91004e-05 13.125C-1.46474e-05 14.1592 0.839578 15 1.87493 15H7.4999C8.53115 15 9.3749 14.1562 9.3749 13.125V12.1875H7.99505L7.96865 13.125Z" fill="#FB09B7"/>
</g>
</g>
<defs>
<clipPath id="clip0_105_13">
<rect width="15" height="15" fill="white"/>
</clipPath>
</defs>
</svg>
