<svg width="430" height="171" viewBox="0 0 430 171" fill="none" xmlns="http://www.w3.org/2000/svg">
<rect width="430" height="171" rx="10" fill="white"/>
<rect width="430" height="75" fill="url(#paint0_linear_16_2)" style="mix-blend-mode:darken"/>
<path d="M134.92 45.536H125.488L123.184 50H116.74L130.348 24.728H137.476L142.156 50H135.64L134.92 45.536ZM134.2 40.856L132.724 31.496L127.9 40.856H134.2ZM167.547 50H161.391L153.867 34.412L151.095 50H144.939L149.403 24.728H155.559L163.083 40.388L165.855 24.728H172.011L167.547 50ZM198.145 24.728L186.445 41.648L184.933 50H178.777L180.289 41.648L174.493 24.728H181.477L184.501 35.276L191.233 24.728H198.145ZM229.246 24.728L224.782 50H218.626L221.326 34.844L212.974 50H208.006L204.982 34.772L202.318 50H196.162L200.626 24.728H207.898L211.93 42.224L222.01 24.728H229.246ZM241.233 50.252C239.097 50.252 237.213 49.808 235.581 48.92C233.973 48.032 232.725 46.784 231.837 45.176C230.949 43.568 230.505 41.72 230.505 39.632C230.505 36.68 231.141 34.052 232.413 31.748C233.685 29.42 235.449 27.608 237.705 26.312C239.985 25.016 242.565 24.368 245.445 24.368C247.605 24.368 249.501 24.812 251.133 25.7C252.765 26.564 254.025 27.8 254.913 29.408C255.801 30.992 256.245 32.816 256.245 34.88C256.245 37.832 255.609 40.484 254.337 42.836C253.065 45.164 251.289 46.988 249.009 48.308C246.729 49.604 244.137 50.252 241.233 50.252ZM242.169 44.564C243.753 44.564 245.145 44.156 246.345 43.34C247.545 42.524 248.469 41.432 249.117 40.064C249.789 38.672 250.125 37.172 250.125 35.564C250.125 33.836 249.645 32.48 248.685 31.496C247.725 30.512 246.381 30.02 244.653 30.02C243.069 30.02 241.665 30.428 240.441 31.244C239.241 32.06 238.305 33.152 237.633 34.52C236.985 35.864 236.661 37.352 236.661 38.984C236.661 40.712 237.141 42.08 238.101 43.088C239.061 44.072 240.417 44.564 242.169 44.564ZM269.533 50.252C267.397 50.252 265.513 49.808 263.881 48.92C262.273 48.032 261.025 46.784 260.137 45.176C259.249 43.568 258.805 41.72 258.805 39.632C258.805 36.68 259.441 34.052 260.713 31.748C261.985 29.42 263.749 27.608 266.005 26.312C268.285 25.016 270.865 24.368 273.745 24.368C275.905 24.368 277.801 24.812 279.433 25.7C281.065 26.564 282.325 27.8 283.213 29.408C284.101 30.992 284.545 32.816 284.545 34.88C284.545 37.832 283.909 40.484 282.637 42.836C281.365 45.164 279.589 46.988 277.309 48.308C275.029 49.604 272.437 50.252 269.533 50.252ZM270.469 44.564C272.053 44.564 273.445 44.156 274.645 43.34C275.845 42.524 276.769 41.432 277.417 40.064C278.089 38.672 278.425 37.172 278.425 35.564C278.425 33.836 277.945 32.48 276.985 31.496C276.025 30.512 274.681 30.02 272.953 30.02C271.369 30.02 269.965 30.428 268.741 31.244C267.541 32.06 266.605 33.152 265.933 34.52C265.285 35.864 264.961 37.352 264.961 38.984C264.961 40.712 265.441 42.08 266.401 43.088C267.361 44.072 268.717 44.564 270.469 44.564ZM299.742 24.728C302.07 24.728 304.074 25.148 305.754 25.988C307.458 26.804 308.754 27.968 309.642 29.48C310.554 30.968 311.01 32.72 311.01 34.736C311.01 35.432 310.926 36.308 310.758 37.364C310.326 39.836 309.39 42.032 307.95 43.952C306.534 45.872 304.722 47.36 302.514 48.416C300.33 49.472 297.918 50 295.278 50H285.81L290.274 24.728H299.742ZM295.818 44.744C298.146 44.744 300.078 44.096 301.614 42.8C303.15 41.504 304.11 39.692 304.494 37.364C304.614 36.644 304.674 36.044 304.674 35.564C304.674 33.788 304.134 32.42 303.054 31.46C301.974 30.476 300.438 29.984 298.446 29.984H295.494L292.902 44.744H295.818Z" fill="white"/>
<defs>
<linearGradient id="paint0_linear_16_2" x1="367.705" y1="5.15534e-05" x2="50.9381" y2="144.622" gradientUnits="userSpaceOnUse">
<stop stop-color="#FB0991"/>
<stop offset="0.520833" stop-color="#AA39DF" stop-opacity="0.9"/>
<stop offset="1" stop-color="#3456CD"/>
</linearGradient>
</defs>
</svg>
