<svg width="30" height="30" viewBox="0 0 30 30" fill="none" xmlns="http://www.w3.org/2000/svg">
<g clip-path="url(#clip0_33_2)">
<path d="M29.4488 4.13848L25.8599 0.549609C25.5113 0.19752 25.0308 0 24.5328 0H14.9468C12.8755 0 11.1968 1.6793 11.1968 3.75L11.198 18.75C11.2495 20.8242 12.9312 22.5 14.9995 22.5H26.2495C28.312 22.5 29.9995 20.8125 29.9995 18.75V5.46387C29.9995 4.96699 29.8003 4.49004 29.4488 4.13848ZM27.187 18.75C27.187 19.2677 26.7673 19.6875 26.2495 19.6875H14.9468C14.429 19.6875 14.0093 19.2677 14.0093 18.75V3.75762C14.0093 3.23988 14.4291 2.82012 14.9468 2.82012H22.4468L22.4995 5.625C22.4995 6.66035 23.3392 7.5 24.3745 7.5H27.1343V18.75H27.187ZM15.937 26.25C15.937 26.7677 15.5173 27.1875 14.9995 27.1875H3.69681C3.17896 27.1875 2.75931 26.7677 2.75931 26.25L2.81088 11.2559C2.81088 10.7381 3.23064 10.3184 3.74838 10.3184H9.37455V7.5H3.74896C1.67767 7.5 -0.0010376 9.17871 -0.0010376 11.25L-0.000463379 26.25C-0.000334473 28.3184 1.67885 30 3.74955 30H14.9995C17.062 30 18.7495 28.3125 18.7495 26.25V24.375H15.9898L15.937 26.25Z" fill="white"/>
</g>
<defs>
<clipPath id="clip0_33_2">
<rect width="30" height="30" fill="white"/>
</clipPath>
</defs>
</svg>
