<svg width="196" height="27" viewBox="0 0 196 27" fill="none" xmlns="http://www.w3.org/2000/svg">
<path d="M18.92 21.536H9.488L7.184 26H0.74L14.348 0.727999H21.476L26.156 26H19.64L18.92 21.536ZM18.2 16.856L16.724 7.496L11.9 16.856H18.2ZM51.547 26H45.391L37.867 10.412L35.095 26H28.939L33.403 0.727999H39.559L47.083 16.388L49.855 0.727999H56.011L51.547 26ZM82.1453 0.727999L70.4453 17.648L68.9333 26H62.7773L64.2893 17.648L58.4933 0.727999H65.4773L68.5013 11.276L75.2333 0.727999H82.1453ZM113.246 0.727999L108.782 26H102.626L105.326 10.844L96.9736 26H92.0056L88.9816 10.772L86.3176 26H80.1616L84.6256 0.727999H91.8976L95.9296 18.224L106.01 0.727999H113.246ZM125.233 26.252C123.097 26.252 121.213 25.808 119.581 24.92C117.973 24.032 116.725 22.784 115.837 21.176C114.949 19.568 114.505 17.72 114.505 15.632C114.505 12.68 115.141 10.052 116.413 7.748C117.685 5.42 119.449 3.608 121.705 2.312C123.985 1.016 126.565 0.368 129.445 0.368C131.605 0.368 133.501 0.812 135.133 1.7C136.765 2.564 138.025 3.8 138.913 5.408C139.801 6.992 140.245 8.816 140.245 10.88C140.245 13.832 139.609 16.484 138.337 18.836C137.065 21.164 135.289 22.988 133.009 24.308C130.729 25.604 128.137 26.252 125.233 26.252ZM126.169 20.564C127.753 20.564 129.145 20.156 130.345 19.34C131.545 18.524 132.469 17.432 133.117 16.064C133.789 14.672 134.125 13.172 134.125 11.564C134.125 9.836 133.645 8.48 132.685 7.496C131.725 6.512 130.381 6.02 128.653 6.02C127.069 6.02 125.665 6.428 124.441 7.244C123.241 8.06 122.305 9.152 121.633 10.52C120.985 11.864 120.661 13.352 120.661 14.984C120.661 16.712 121.141 18.08 122.101 19.088C123.061 20.072 124.417 20.564 126.169 20.564ZM153.533 26.252C151.397 26.252 149.513 25.808 147.881 24.92C146.273 24.032 145.025 22.784 144.137 21.176C143.249 19.568 142.805 17.72 142.805 15.632C142.805 12.68 143.441 10.052 144.713 7.748C145.985 5.42 147.749 3.608 150.005 2.312C152.285 1.016 154.865 0.368 157.745 0.368C159.905 0.368 161.801 0.812 163.433 1.7C165.065 2.564 166.325 3.8 167.213 5.408C168.101 6.992 168.545 8.816 168.545 10.88C168.545 13.832 167.909 16.484 166.637 18.836C165.365 21.164 163.589 22.988 161.309 24.308C159.029 25.604 156.437 26.252 153.533 26.252ZM154.469 20.564C156.053 20.564 157.445 20.156 158.645 19.34C159.845 18.524 160.769 17.432 161.417 16.064C162.089 14.672 162.425 13.172 162.425 11.564C162.425 9.836 161.945 8.48 160.985 7.496C160.025 6.512 158.681 6.02 156.953 6.02C155.369 6.02 153.965 6.428 152.741 7.244C151.541 8.06 150.605 9.152 149.933 10.52C149.285 11.864 148.961 13.352 148.961 14.984C148.961 16.712 149.441 18.08 150.401 19.088C151.361 20.072 152.717 20.564 154.469 20.564ZM183.742 0.727999C186.07 0.727999 188.074 1.148 189.754 1.988C191.458 2.804 192.754 3.968 193.642 5.48C194.554 6.968 195.01 8.72 195.01 10.736C195.01 11.432 194.926 12.308 194.758 13.364C194.326 15.836 193.39 18.032 191.95 19.952C190.534 21.872 188.722 23.36 186.514 24.416C184.33 25.472 181.918 26 179.278 26H169.81L174.274 0.727999H183.742ZM179.818 20.744C182.146 20.744 184.078 20.096 185.614 18.8C187.15 17.504 188.11 15.692 188.494 13.364C188.614 12.644 188.674 12.044 188.674 11.564C188.674 9.788 188.134 8.42 187.054 7.46C185.974 6.476 184.438 5.984 182.446 5.984H179.494L176.902 20.744H179.818Z" fill="white"/>
</svg>
